<?xml version="1.0" encoding="utf-8"?>
<!-- Generator: Adobe Illustrator 16.0.0, SVG Export Plug-In . SVG Version: 6.00 Build 0)  -->
<!DOCTYPE svg PUBLIC "-//W3C//DTD SVG 1.1//EN" "http://www.w3.org/Graphics/SVG/1.1/DTD/svg11.dtd">
<svg version="1.1" xmlns="http://www.w3.org/2000/svg" xmlns:xlink="http://www.w3.org/1999/xlink" x="0px" y="0px"
	 width="403.292px" height="98.616px" viewBox="0 0 403.292 98.616" enable-background="new 0 0 403.292 98.616"
	 xml:space="preserve">
<g id="Layer_3">
</g>
<g id="Logo_1_">
	<g id="LINQUE_xA0_Image_1_">
		<path display="none" fill="#FFFFFF" stroke="#000000" stroke-width="0.0697" stroke-miterlimit="10" d="M285.001,113.928
			c-0.286-0.705-0.467-1.176-0.667-1.633c-4.679-10.877-8.854-21.944-12.465-33.222c-4.308-13.438-8.291-26.97-12.875-40.317
			c-2.847-8.299-7.459-15.354-14.527-20.629c-14.044-10.486-33.202-10.364-47.405,0.216c-13.82,10.283-19.3,29.014-13.126,45.323
			c4.611,12.192,13.545,19.931,25.68,24.162c7.275,2.535,14.616,4.866,21.999,7.077c15.918,4.766,31.82,9.588,47.078,16.271
			C280.713,112.066,282.739,112.942,285.001,113.928z"/>
		<g>
			<path fill="#FFFFFF" d="M8.844,87.285V12.976H28.92v58.095h28.615v16.213H8.844z"/>
			<path fill="#FFFFFF" d="M69.43,87.285V12.976h20.178v74.309H69.43z"/>
			<path fill="#FFFFFF" d="M176.42,87.285h-26.329l-27.142-52.352h-0.457c0.644,8.234,0.966,14.521,0.966,18.857v33.495h-17.789
				V12.976h26.227l27.04,51.64h0.305c-0.475-7.487-0.712-13.504-0.712-18.043V12.976h17.892V87.285z"/>
			<path fill="#FFFFFF" d="M316.701,30.087V12.976h20.076v44.728c0,9.724-2.754,17.256-8.259,22.592
				c-5.509,5.337-13.443,8.005-23.812,8.005c-10.134,0-17.916-2.592-23.354-7.776s-8.158-12.64-8.158-22.364V12.976h20.179v43.609
				c0,5.251,0.981,9.063,2.947,11.436c1.964,2.373,4.86,3.558,8.691,3.558c4.099,0,7.071-1.178,8.921-3.532
				c1.846-2.354,2.77-6.21,2.77-11.563V30.087"/>
			<path fill="#FFFFFF" d="M396.499,87.285h-44.117V12.976h44.117v16.112h-24.041v11.69h22.263v16.112h-22.263v14.028h24.041V87.285
				z"/>
		</g>
		<g>
		</g>
		<path fill="#FFFFFF" d="M264.842,50.419c1.693,15.585,3.253,42.561,3.253,42.561s-23.532-0.057-43.339-2.478
			c-21.977-2.681-40.087-17.942-40.087-40.083c0-22.14,17.945-40.086,40.087-40.086C246.894,10.333,262.45,28.41,264.842,50.419z"/>
	</g>
</g>
</svg>
