<svg xmlns="http://www.w3.org/2000/svg" xmlns:xlink="http://www.w3.org/1999/xlink" version="1.1" x="0px" y="0px" width="100px" height="100px" enable-background="new 0 0 100 100" xml:space="preserve">
<g fill="#FFF">
	<path d="M73.882,61.455c0,0-9.18,16.617-9.18,22.315c0,5.697,3.006,11.396,9.021,11.396c7.282,0,9.971-6.015,9.971-11.396   S73.882,61.455,73.882,61.455z"/>
	<path d="M10,34h12.039c0,0,2.635,3.876,2.395,3.518c-0.239-0.359,8.624-0.338,8.624-0.338l2.395-4.121l15.688-0.385   c0,0,2.516,4.84,6.707,4.84c4.19,0,22.036-3.514,21.677,21.486H68.386c0,0,1.798-9.579-9.341-8.739c0,0-13.054,12.739-29.222,1.739   h-4.192l-3.474,2H10V34z"/>
	<rect x="31" y="26" width="25" height="8"/>
	<path d="M52.459,27.022c0,0-2.636-5.27-8.743-5.149c-6.108,0.12-8.024,4.909-8.024,4.909L52.459,27.022z"/>
	<polyline points="42,24 42,17 39,17 39,10 47,10 47,17 45,17 45,24  "/>
	<polygon points="22,7.021 22,17.8 39,13.848 39,10.974  "/>
	<polygon points="64,7.021 64,17.8 47,13.848 47,10.974  "/>
</g>
</svg>
